# xmcd CD database file
#
# Track frame offsets:
#	150
#	40922
#	81066
#	109924
#	145959
#
# Disc length: 2356 seconds
#
# Revision: 3
# Processed by: cddbd v1.5.1PL2 Copyright (c) Steve Scherf et al.
# Submitted via: CDex 1.51
#
DISCID=3d093205
DTITLE=Lee Morgan - Cornbread
DYEAR=1965
DGENRE=Jazz
TTITLE0=Cornbread
TTITLE1=Our Man Higgins
TTITLE2=Ceora
TTITLE3=Ill Wind
TTITLE4=Most Like Lee
EXTD=w/ Jackie McLean: alto\nHank Mobley: tenor\nHerbie Hancock: piano\nLarry Ridley: bass\nBilly Higgins: drums\n\nSubmitted by rwright@waonline.com on 7-20-97. YEAR: 1965
EXTT0=
EXTT1=
EXTT2=
EXTT3=
EXTT4=
PLAYORDER=
